PathFileType	4	(X/Y/Z)	 s11c0301.trc
DataRate	CameraRate	NumFrames	NumMarkers	Units	OrigDataRate	OrigDataStartFrame	OrigNumFrames
200	200	7	48	mm	200	1	2000
Frame#	Time	racr			lacr			c7			jug			rlel			rdr			llel			ldr			s2			lic			ric			lasi			rasi			rpsi			lpsi			rgt			lgt			rth1			rth2			rth3			rth4			rlfc			rmfc			rsh1			rsh2			rsh3			rsh4			rlmal			rcal			rtoe			rmt5			lth1			lth2			lth4			lth3			llfc			lmfc			llmal			lcal			lmt5			lsh1			lsh2			lsh3			lsh4			ltoe			SBIKE			LBIKE			RBIKE			
		X1	Y1	Z1	X2	Y2	Z2	X3	Y3	Z3	X4	Y4	Z4	X5	Y5	Z5	X6	Y6	Z6	X7	Y7	Z7	X8	Y8	Z8	X9	Y9	Z9	X10	Y10	Z10	X11	Y11	Z11	X12	Y12	Z12	X13	Y13	Z13	X14	Y14	Z14	X15	Y15	Z15	X16	Y16	Z16	X17	Y17	Z17	X18	Y18	Z18	X19	Y19	Z19	X20	Y20	Z20	X21	Y21	Z21	X22	Y22	Z22	X23	Y23	Z23	X24	Y24	Z24	X25	Y25	Z25	X26	Y26	Z26	X27	Y27	Z27	X28	Y28	Z28	X29	Y29	Z29	X30	Y30	Z30	X31	Y31	Z31	X32	Y32	Z32	X33	Y33	Z33	X34	Y34	Z34	X35	Y35	Z35	X36	Y36	Z36	X37	Y37	Z37	X38	Y38	Z38	X39	Y39	Z39	X40	Y40	Z40	X41	Y41	Z41	X42	Y42	Z42	X43	Y43	Z43	X44	Y44	Z44	X45	Y45	Z45	X46	Y46	Z46	X47	Y47	Z47	X48	Y48	Z48	
1	0.0050	459.545129	1389.521659	-89.926732	460.992763	1409.734915	-408.576093	384.047863	1513.652942	-246.256966	425.600585	1339.795023	-255.995950	585.918256	1154.364494	-24.924229	789.623873	930.912751	-53.137173	566.796934	1134.767541	-475.944867	806.068422	922.300480	-417.359023	-139.466362	1212.717390	-238.107886	75.765475	1237.465877	-448.588190	89.443588	1208.175175	-49.160634	98.970757	1164.538088	-408.651893	117.674237	1142.966090	-82.311910	-88.489048	1279.950392	-185.178330	-99.086698	1278.909952	-279.881165	24.521138	1051.373045	-33.613399	-0.037782	1116.323465	-462.653928	120.649760	939.790475	-30.183534	194.903373	891.639977	-41.567864	233.962301	815.415356	-59.786508	220.875699	917.181810	-51.756892	297.873492	731.143200	-78.759535	291.912902	715.531850	-205.379521	204.507417	601.311157	-67.068710	172.003050	521.051243	-87.399819	105.282388	465.459999	-89.005367	193.758203	510.887171	-119.204545	13.647513	366.649748	-102.686409	-51.617811	367.155219	-151.914160	208.882311	249.915050	-137.868498	132.410060	245.482317	-71.166830	136.885450	1050.258447	-472.866301	220.916169	1034.901601	-468.309487	237.425484	1066.214684	-456.576183	288.827937	975.903100	-468.652232	411.095458	898.188625	-439.310753	422.330813	894.105691	-310.887131	275.853782	487.697674	-412.226756	219.470940	439.264748	-376.934823	425.967072	402.805103	-439.025170	373.377209	777.725095	-456.604320	372.699190	693.618435	-440.417611	329.194929	616.244413	-434.924258	402.449944	688.419969	-416.560481	517.204260	433.067973	-367.747345	-205.926285	956.288611	-262.156447	1.074623	82.646438	-460.755411	-15.308882	81.061924	-62.608154	
2	0.0100	459.507453	1389.575009	-89.875706	460.972394	1409.682101	-408.415220	384.163486	1513.780535	-246.130646	425.717211	1339.864164	-255.922913	586.030660	1154.335414	-24.830830	789.727023	930.868459	-53.215224	566.683408	1134.861739	-476.100203	806.207728	922.113172	-417.161963	-139.602837	1212.810957	-238.038133	75.608723	1237.387522	-448.511746	89.225247	1208.363416	-49.139828	99.215095	1164.325040	-409.135435	117.407673	1143.179619	-82.338328	-88.533161	1279.967279	-184.971852	-99.120496	1278.915149	-279.862959	24.795479	1051.729176	-33.644331	-0.089554	1115.876909	-462.399431	121.789146	940.985873	-30.262786	196.360114	893.383046	-41.308086	235.936735	817.261680	-59.586152	222.214780	918.968516	-51.591827	300.145314	733.257947	-78.465807	294.928950	717.444978	-204.794259	205.837302	604.064753	-66.894556	173.092102	524.568094	-86.748929	105.536360	469.156774	-88.978251	194.412041	513.689140	-118.982869	13.364151	370.949721	-102.833500	-51.935840	371.709121	-151.993537	207.625784	252.561792	-137.974921	131.031831	248.717011	-71.165457	136.557868	1048.931979	-472.594983	220.438826	1033.041121	-467.898321	237.160271	1064.266417	-456.224475	287.984277	973.581384	-468.013091	409.988456	895.279772	-438.458999	421.472628	891.524223	-309.707992	277.337558	483.834857	-412.255753	220.928097	435.343558	-376.883379	427.471962	399.283923	-438.978769	373.004015	774.486433	-456.046062	372.701326	689.626838	-439.987652	329.957095	612.642912	-434.558599	402.413721	685.618356	-418.070178	518.655205	429.648599	-367.593266	-205.906392	956.283878	-262.118999	1.077384	82.644001	-460.745857	-15.368727	81.078273	-62.556127	
3	0.0150	459.492845	1389.635927	-89.766181	460.950552	1409.521532	-408.181649	384.279251	1513.910030	-245.998697	425.809438	1339.946706	-255.845293	586.220538	1154.360086	-24.830302	789.832747	930.834066	-53.362749	566.748721	1135.016446	-476.154422	806.384303	921.912687	-416.935156	-139.684888	1212.894561	-237.967629	75.471042	1237.250915	-448.422567	89.058351	1208.562156	-49.103928	99.103207	1163.735293	-408.818084	117.168126	1143.368593	-82.333027	-88.660397	1280.073938	-184.976676	-99.183171	1278.925477	-279.801052	25.125555	1052.140924	-33.717485	-0.133599	1115.305646	-462.134671	123.024961	942.346664	-30.505787	197.855318	895.117640	-41.124265	237.884475	819.262535	-59.441261	223.639148	920.845873	-51.428622	302.446656	735.474617	-78.040848	297.495485	719.782999	-204.747117	207.196093	606.822340	-66.751038	173.690194	527.487336	-86.468372	105.821645	472.694171	-88.879154	195.243391	516.538633	-118.701131	13.208302	375.001538	-102.889315	-52.178216	376.432712	-152.074639	206.387868	255.079373	-137.942595	129.826075	251.928813	-71.222308	136.209132	1047.492064	-472.314292	219.988282	1031.036895	-467.501629	236.900667	1062.187348	-455.941509	287.086473	971.077407	-467.363151	408.769035	892.173659	-437.583182	419.358028	888.162097	-309.649336	278.588837	479.812305	-412.338696	222.199500	431.246014	-376.887257	428.842984	395.761984	-438.861749	372.532344	771.053381	-455.454132	372.989714	687.035354	-439.401677	330.575764	608.972917	-434.244664	402.754373	682.129951	-415.504552	519.967191	426.375283	-367.563461	-205.884611	956.280818	-262.069191	1.084601	82.651439	-460.735852	-15.302139	81.061428	-62.620245	
4	0.0200	459.495159	1389.680192	-89.584578	461.278100	1409.650959	-407.854595	384.384535	1514.046764	-245.880946	425.867903	1340.088831	-255.746708	586.454084	1154.407067	-24.912846	789.929321	930.787067	-53.474204	566.975706	1135.198040	-476.101061	806.586791	921.714527	-416.671388	-139.779270	1212.980785	-237.877889	75.324834	1237.018666	-448.321855	88.945038	1208.779517	-49.069170	99.426372	1163.294747	-409.322200	116.948963	1143.554821	-82.369045	-89.188995	1280.303972	-185.084102	-99.172518	1278.934252	-279.766195	25.493458	1052.692005	-33.797639	-0.200396	1114.880819	-461.918883	124.773384	944.298524	-29.471999	199.497112	897.227732	-40.899250	239.818583	821.358669	-59.350826	225.033925	922.862110	-51.261313	304.534824	737.719172	-77.644783	300.225654	721.958068	-204.513627	208.635461	609.561607	-66.496790	174.462166	530.480822	-86.198663	106.162226	476.225146	-88.745960	195.954401	519.293916	-118.449102	13.225335	379.077706	-102.822823	-52.360194	381.076790	-152.114581	205.177120	257.835769	-137.834696	128.732800	255.075525	-71.236966	135.775478	1045.857869	-472.020546	219.487195	1028.906275	-467.082023	236.780108	1059.945193	-455.544243	286.127360	968.459004	-466.686228	407.515443	888.898494	-436.715774	417.836632	885.006108	-308.845405	279.638904	475.723008	-412.364761	222.922337	427.127454	-377.164712	430.040605	392.278136	-438.841674	371.925135	767.403671	-454.813059	372.689662	682.547717	-438.904330	330.917040	605.057010	-433.961808	402.125171	679.009434	-417.471840	521.056510	423.082073	-367.479830	-205.862050	956.289046	-261.998826	1.079986	82.648832	-460.753709	-15.340429	81.072728	-62.554152	
5	0.0250	459.513631	1389.485560	-89.223341	461.296896	1409.043230	-407.660407	384.527199	1514.178766	-245.835017	425.923668	1340.063155	-255.612051	586.684200	1154.408376	-24.977827	790.376963	930.959365	-54.288519	567.343013	1135.386453	-475.693018	807.110909	921.946341	-416.744727	-139.758348	1212.804561	-237.787456	75.253230	1236.772867	-448.291173	88.934151	1208.849602	-48.838513	99.654717	1162.805487	-409.644447	116.742402	1143.614005	-82.195412	-89.342974	1280.297499	-185.150791	-99.087983	1278.796814	-279.762595	26.023942	1052.946024	-34.029919	-0.270009	1113.967707	-461.663566	126.089205	945.557013	-30.074245	201.064930	898.906481	-40.529638	241.759617	823.092006	-59.011041	226.521204	924.796646	-51.253663	306.819317	739.805984	-76.919769	302.812672	724.170481	-204.112271	210.117318	612.067258	-66.236873	175.503591	532.969697	-85.269745	106.660445	479.503123	-88.481642	197.216227	522.125363	-118.048375	13.149816	382.987683	-102.557856	-52.430773	385.631805	-151.898919	204.203231	260.274313	-137.711603	127.705066	258.108826	-71.152656	135.406980	1043.983006	-471.765083	218.935108	1026.332752	-466.151512	236.430376	1057.330330	-455.010375	285.138158	965.402196	-465.342777	406.112472	885.257941	-435.383970	416.330383	881.501915	-307.983912	280.488413	471.544334	-412.298158	224.176155	422.801876	-376.827705	431.206208	388.761971	-438.732592	371.145391	763.542258	-454.202350	372.448477	678.648210	-438.305405	330.884123	600.930680	-433.676763	401.487976	675.332207	-417.488413	522.085285	419.962039	-367.484155	-206.199953	956.560445	-263.003741	1.103064	82.795944	-460.506500	-15.246492	80.924977	-62.390106	
6	0.0300	459.508621	1389.545235	-88.831701	461.348146	1408.743773	-407.380963	384.634838	1514.335720	-245.729627	426.002091	1340.165353	-255.493916	586.984551	1154.536267	-25.280999	790.271695	930.685155	-54.226875	567.909855	1135.645470	-475.537562	806.337281	920.756962	-415.265450	-139.755118	1213.140559	-237.760239	75.253785	1236.563651	-448.308154	88.853011	1209.269242	-49.032121	100.040632	1162.359472	-410.052551	116.513309	1143.854207	-82.204052	-89.378179	1280.727720	-185.093739	-99.020783	1278.924921	-279.760299	26.694792	1053.739936	-34.097676	-0.244124	1113.750983	-461.267073	127.558383	947.320906	-30.389882	202.540276	901.042563	-41.283989	243.720999	825.352182	-59.157166	228.007825	926.818335	-51.271190	308.869300	741.985475	-76.781611	305.169604	726.563847	-204.557131	211.577368	614.876397	-66.021518	176.413599	536.261215	-85.701884	107.301161	483.051887	-88.418595	198.042126	524.944880	-117.739062	13.272744	387.113237	-102.448053	-52.475848	390.178400	-151.920868	203.266716	262.885790	-137.743884	126.820341	261.268232	-71.128949	135.097451	1042.484130	-471.327210	218.536936	1024.105481	-465.820031	236.227332	1054.949689	-454.854279	284.239295	962.626294	-464.807654	404.646921	881.796071	-434.756453	414.654808	877.972476	-307.442108	281.015971	467.449764	-412.162677	225.306983	418.744299	-376.854281	432.122692	385.413542	-438.689593	370.261043	759.582102	-453.635498	371.970750	674.744385	-437.700186	331.084655	596.726656	-433.040586	401.050296	671.336437	-417.069980	522.941395	416.873016	-367.394727	-206.417640	956.746727	-263.607426	1.234313	82.638404	-460.814241	-15.286568	81.031982	-62.508330	
7	0.0350	459.503937	1389.623076	-88.339937	461.371570	1408.468021	-407.110728	384.702716	1514.521453	-245.661594	426.045681	1340.376133	-255.387770	587.299719	1154.733322	-25.661150	790.386139	930.675941	-54.337253	568.619524	1135.916313	-475.174055	807.606821	921.723141	-416.587931	-139.709800	1213.251480	-237.707499	75.270815	1236.313912	-448.304245	88.771082	1209.645831	-49.001536	100.347456	1161.580546	-410.129960	116.234361	1144.149215	-82.277290	-89.413872	1281.025108	-185.142910	-98.967937	1278.946936	-279.764674	27.335232	1054.566405	-34.061174	-0.241123	1113.050666	-460.967781	128.866720	948.985785	-30.589347	203.961559	903.102514	-41.490900	245.571283	827.328838	-59.033929	229.440403	928.854079	-51.240950	311.033897	744.152830	-76.452081	307.668346	728.650261	-204.239415	213.000971	617.633092	-65.842177	177.371779	539.128946	-85.484613	107.945709	486.408632	-88.214367	198.779341	527.691721	-117.529830	13.140723	391.095677	-102.254724	-52.426527	394.814652	-151.757358	202.395199	265.507342	-137.692062	125.893584	264.457415	-71.062949	134.763806	1040.619458	-470.921509	218.069303	1021.587346	-465.357288	235.991702	1052.369788	-454.546254	283.271719	959.594098	-463.950495	403.085949	878.184610	-433.831827	412.863576	873.455741	-306.688636	281.490422	463.258731	-411.847492	226.223111	413.730103	-375.767806	433.057034	381.992210	-438.612718	369.218861	755.435600	-453.006594	371.325734	670.699290	-437.015819	330.888807	592.402305	-432.425026	400.402736	667.424526	-416.306735	523.758108	413.702514	-367.270979	-206.532564	956.860112	-263.871909	1.254821	82.625122	-460.859306	-15.223504	81.036654	-62.591924	
